<?xml version="1.0" encoding="utf-8"?>
<!-- Generator: Adobe Illustrator 21.1.0, SVG Export Plug-In . SVG Version: 6.00 Build 0)  -->
<svg version="1.1" id="Layer_1" xmlns="http://www.w3.org/2000/svg" xmlns:xlink="http://www.w3.org/1999/xlink" x="0px" y="0px"
	 viewBox="0 0 193.6 181.4" style="enable-background:new 0 0 193.6 181.4;" xml:space="preserve">
<style type="text/css">
	.st0{fill:#500000;}
	.st1{fill:#FFFFFF;}
	.st2{fill:#B1B3B6;}
</style>
<title>Artboard 1</title>
<g>
	<rect class="st0" width="180" height="181.4"/>
	<polygon class="st1" points="156.1,72.2 142.7,72.2 142,72.2 141.6,72.9 131.9,93.1 122.2,72.9 121.9,72.2 121.1,72.2 108.2,72.2 
		106.9,72.2 106.9,73.4 106.9,80.3 106.9,81.6 108.2,81.6 110.4,81.6 110.4,110.4 108,110.4 106.8,110.4 106.8,111.7 106.8,118.6 
		106.8,119.8 108,119.8 122.5,119.8 123.7,119.8 123.7,118.6 123.7,111.7 123.7,110.4 122.5,110.4 120,110.4 120,89.9 130.8,112.3 
		131.9,114.6 133,112.3 144,89.9 144,110.4 141.6,110.4 140.4,110.4 140.4,111.7 140.4,118.6 140.4,119.8 141.6,119.8 156.1,119.8 
		157.3,119.8 157.3,118.6 157.3,111.7 157.3,110.4 156.1,110.4 153.6,110.4 153.6,81.6 156.1,81.6 157.3,81.6 157.3,80.3 
		157.3,73.4 157.3,72.2 	"/>
	<path class="st1" d="M71.8,110.4H68l-12.6-29h2.4V72H37.7v9.4h2.8l-12.6,29h-5.2v9.4H41v-9.4h-2.7l2.1-4.8h15.1l2.1,4.8h-2.8v9.4
		h18.3v-9.4L71.8,110.4z M51.5,96.2h-7l3.5-8.1L51.5,96.2z"/>
	<polygon class="st1" points="140.7,35.9 38.9,35.9 37.5,35.9 37.5,37.3 37.5,64.5 37.5,65.9 38.9,65.9 56.5,65.9 57.9,65.9 
		57.9,64.5 57.9,54.4 79.6,54.4 79.6,126.1 69.5,126.1 68.1,126.1 68.1,127.5 68.1,145.1 68.1,146.5 69.5,146.5 110.1,146.5 
		111.5,146.5 111.5,145.1 111.5,127.5 111.5,126.1 110.1,126.1 100,126.1 100,54.4 121.6,54.4 121.6,64.4 121.6,65.8 123,65.8 
		140.7,65.8 142.2,65.8 142.2,64.4 142.2,37.3 142.2,35.9 	"/>
	<polygon class="st2" points="103.1,134.5 107.4,130 107.4,142.2 103.1,138.1 	"/>
	<polygon class="st2" points="95.9,130.4 91.6,134.6 91.6,46 95.9,50.3 	"/>
	<polygon class="st2" points="46.1,44.4 41.7,40.1 135.8,40.1 130.2,44.4 	"/>
	<polygon class="st2" points="138.1,61.9 133.8,57.8 133.8,46.8 138.1,42.4 	"/>
</g>
<path class="st0" d="M186.4,177.8c0-2,1.6-3.6,3.6-3.6s3.6,1.6,3.6,3.6s-1.6,3.6-3.6,3.6S186.4,179.8,186.4,177.8L186.4,177.8z
	 M192.7,177.8c-0.1-1.5-1.4-2.6-2.9-2.5c-1.5,0.1-2.6,1.4-2.5,2.9c0.1,1.4,1.3,2.5,2.7,2.5c1.5,0,2.8-1.3,2.7-2.8
	C192.7,177.9,192.7,177.9,192.7,177.8z M188.6,175.8h1.5c1,0,1.5,0.3,1.5,1.2c0.1,0.5-0.3,1-0.9,1.1c-0.1,0-0.1,0-0.2,0l1.1,1.8
	h-0.8l-1.1-1.8h-0.5v1.8h-0.8L188.6,175.8z M189.4,177.5h0.7c0.4,0,0.8-0.1,0.8-0.6s-0.4-0.6-0.8-0.6h-0.7V177.5z"/>
</svg>
